<mxfile host="Electron" modified="2024-06-16T04:35:40.755Z" agent="Mozilla/5.0 (Windows NT 10.0; Win64; x64) AppleWebKit/537.36 (KHTML, like Gecko) draw.io/24.5.3 Chrome/124.0.6367.207 Electron/30.0.6 Safari/537.36" etag="GefRrdHNTZposhPcBXBl" version="24.5.3" type="device" pages="2">
  <diagram name="Page-1" id="CbTUu8CIjIRZ3oDIRdc0">
    <mxGraphModel dx="1000" dy="1519" grid="1" gridSize="8" guides="1" tooltips="1" connect="1" arrows="1" fold="1" page="1" pageScale="1" pageWidth="1920" pageHeight="1200" math="0" shadow="0">
      <root>
        <mxCell id="0" />
        <mxCell id="1" parent="0" />
        <mxCell id="OfKR20l93_WzEu7OyuOW-2" value="" style="ellipse;whiteSpace=wrap;html=1;aspect=fixed;fillColor=#344378;strokeColor=#2B3439;strokeWidth=2;" vertex="1" parent="1">
          <mxGeometry x="528" y="320" width="32" height="32" as="geometry" />
        </mxCell>
        <mxCell id="OfKR20l93_WzEu7OyuOW-3" value="SOFT&lt;div&gt;SKILLS&lt;/div&gt;" style="rounded=1;whiteSpace=wrap;html=1;fillColor=#344378;strokeColor=#2B3439;fontColor=#EDE4DA;strokeWidth=2;" vertex="1" parent="1">
          <mxGeometry x="96" y="480" width="128" height="64" as="geometry" />
        </mxCell>
        <mxCell id="OfKR20l93_WzEu7OyuOW-4" value="" style="endArrow=none;html=1;rounded=1;entryX=0.5;entryY=1;entryDx=0;entryDy=0;exitX=0.5;exitY=0;exitDx=0;exitDy=0;strokeColor=#2B3439;edgeStyle=orthogonalEdgeStyle;strokeWidth=2;curved=0;arcSize=20;" edge="1" parent="1" source="OfKR20l93_WzEu7OyuOW-3" target="OfKR20l93_WzEu7OyuOW-2">
          <mxGeometry width="50" height="50" relative="1" as="geometry">
            <mxPoint x="672" y="794" as="sourcePoint" />
            <mxPoint x="722" y="744" as="targetPoint" />
          </mxGeometry>
        </mxCell>
        <mxCell id="psON9EWQ-0nXBF1yr2WG-1" value="SOFTWARE" style="rounded=1;whiteSpace=wrap;html=1;fillColor=#344378;strokeColor=#2B3439;fontColor=#EDE4DA;strokeWidth=2;" vertex="1" parent="1">
          <mxGeometry x="608" y="480" width="128" height="64" as="geometry" />
        </mxCell>
        <mxCell id="psON9EWQ-0nXBF1yr2WG-2" value="HARDWARE" style="rounded=1;whiteSpace=wrap;html=1;fillColor=#344378;strokeColor=#2B3439;fontColor=#EDE4DA;strokeWidth=2;" vertex="1" parent="1">
          <mxGeometry x="864" y="480" width="128" height="64" as="geometry" />
        </mxCell>
        <mxCell id="psON9EWQ-0nXBF1yr2WG-3" value="" style="endArrow=none;html=1;rounded=1;entryX=0.5;entryY=0;entryDx=0;entryDy=0;exitX=0.5;exitY=1;exitDx=0;exitDy=0;strokeColor=#2B3439;edgeStyle=orthogonalEdgeStyle;strokeWidth=2;curved=0;arcSize=20;" edge="1" parent="1" source="OfKR20l93_WzEu7OyuOW-2" target="psON9EWQ-0nXBF1yr2WG-1">
          <mxGeometry width="50" height="50" relative="1" as="geometry">
            <mxPoint x="672" y="328" as="sourcePoint" />
            <mxPoint x="880" y="264" as="targetPoint" />
          </mxGeometry>
        </mxCell>
        <mxCell id="psON9EWQ-0nXBF1yr2WG-4" value="ENGINEERING&lt;div&gt;FUNDAMENTALS&lt;/div&gt;" style="rounded=1;whiteSpace=wrap;html=1;fillColor=#344378;strokeColor=#2B3439;fontColor=#EDE4DA;strokeWidth=2;" vertex="1" parent="1">
          <mxGeometry x="352" y="480" width="128" height="64" as="geometry" />
        </mxCell>
        <mxCell id="psON9EWQ-0nXBF1yr2WG-5" value="" style="endArrow=none;html=1;rounded=1;entryX=0.5;entryY=1;entryDx=0;entryDy=0;exitX=0.5;exitY=0;exitDx=0;exitDy=0;strokeColor=#2B3439;edgeStyle=orthogonalEdgeStyle;strokeWidth=2;curved=0;arcSize=20;" edge="1" parent="1" source="psON9EWQ-0nXBF1yr2WG-4" target="OfKR20l93_WzEu7OyuOW-2">
          <mxGeometry width="50" height="50" relative="1" as="geometry">
            <mxPoint x="400" y="576" as="sourcePoint" />
            <mxPoint x="608" y="512" as="targetPoint" />
          </mxGeometry>
        </mxCell>
        <mxCell id="psON9EWQ-0nXBF1yr2WG-6" value="" style="endArrow=none;html=1;rounded=1;entryX=0.5;entryY=1;entryDx=0;entryDy=0;exitX=0.5;exitY=0;exitDx=0;exitDy=0;strokeColor=#2B3439;edgeStyle=orthogonalEdgeStyle;strokeWidth=2;curved=0;arcSize=20;" edge="1" parent="1" source="psON9EWQ-0nXBF1yr2WG-2" target="OfKR20l93_WzEu7OyuOW-2">
          <mxGeometry width="50" height="50" relative="1" as="geometry">
            <mxPoint x="768" y="264" as="sourcePoint" />
            <mxPoint x="976" y="200" as="targetPoint" />
          </mxGeometry>
        </mxCell>
      </root>
    </mxGraphModel>
  </diagram>
  <diagram id="cfM-dqN0GPkwFNM7L4Jb" name="Colours">
    <mxGraphModel dx="1000" dy="1519" grid="1" gridSize="8" guides="1" tooltips="1" connect="1" arrows="1" fold="1" page="1" pageScale="1" pageWidth="1920" pageHeight="1200" math="0" shadow="0">
      <root>
        <mxCell id="0" />
        <mxCell id="1" parent="0" />
        <mxCell id="e7eDJHrqnYs-NR14eecd-1" value="Name: Blue-Gray&lt;br/&gt;&lt;br&gt;Hex: #5E96D6&lt;br/&gt;&lt;br&gt;&lt;br&gt;&lt;br&gt;Name: American Blue&lt;br/&gt;&lt;br&gt;Hex: #344378&lt;br/&gt;&lt;br&gt;&lt;br&gt;&lt;div&gt;Name: Eerie Black&lt;br/&gt;&lt;br&gt;Hex: #171C1F&lt;br/&gt;&lt;br&gt;&lt;br&gt;&lt;/div&gt;&lt;div&gt;Name: White Chocolate&lt;br/&gt;&lt;br&gt;Hex: #EDE4DA&lt;br/&gt;&lt;br&gt;&lt;br&gt;&lt;/div&gt;&lt;div&gt;Name: Gunmetal&lt;br/&gt;&lt;br&gt;Hex: #2B3439&lt;br/&gt;&lt;br&gt;&lt;br&gt;&lt;/div&gt;" style="text;whiteSpace=wrap;html=1;" vertex="1" parent="1">
          <mxGeometry x="88" y="656" width="184" height="376" as="geometry" />
        </mxCell>
        <mxCell id="e7eDJHrqnYs-NR14eecd-2" value="" style="whiteSpace=wrap;html=1;aspect=fixed;strokeColor=none;fillColor=#5E96D6;" vertex="1" parent="1">
          <mxGeometry x="256" y="640" width="64" height="64" as="geometry" />
        </mxCell>
        <mxCell id="e7eDJHrqnYs-NR14eecd-3" value="" style="whiteSpace=wrap;html=1;aspect=fixed;strokeColor=none;fillColor=#344378;" vertex="1" parent="1">
          <mxGeometry x="256" y="736" width="64" height="64" as="geometry" />
        </mxCell>
        <mxCell id="e7eDJHrqnYs-NR14eecd-4" value="" style="whiteSpace=wrap;html=1;aspect=fixed;strokeColor=none;fillColor=#171C1F;" vertex="1" parent="1">
          <mxGeometry x="256" y="832" width="64" height="64" as="geometry" />
        </mxCell>
        <mxCell id="e7eDJHrqnYs-NR14eecd-5" value="" style="whiteSpace=wrap;html=1;aspect=fixed;strokeColor=none;fillColor=#EDE4DA;" vertex="1" parent="1">
          <mxGeometry x="256" y="928" width="64" height="64" as="geometry" />
        </mxCell>
        <mxCell id="e7eDJHrqnYs-NR14eecd-6" value="" style="whiteSpace=wrap;html=1;aspect=fixed;strokeColor=none;fillColor=#2B3439;" vertex="1" parent="1">
          <mxGeometry x="256" y="1024" width="64" height="64" as="geometry" />
        </mxCell>
      </root>
    </mxGraphModel>
  </diagram>
</mxfile>
